<?xml version="1.0" encoding="UTF-8" standalone="no"?>
<!DOCTYPE svg PUBLIC "-//W3C//DTD SVG 20010904//EN"
              "http://www.w3.org/TR/2001/REC-SVG-20010904/DTD/svg10.dtd">

<svg xmlns="http://www.w3.org/2000/svg"
     width="1.8in" height="1.2in"
     viewBox="0 0 540 360">
  <path id="Selection"
        fill="000000" stroke="black" stroke-width="1"
        d="M 187.00,217.00
           C 181.74,215.70 180.86,207.51 179.31,203.00
             176.86,195.90 174.34,185.50 174.34,178.00
             174.34,178.00 174.96,171.00 174.96,171.00
             175.31,162.87 174.83,160.52 176.90,152.00
             187.77,107.17 227.13,77.47 273.00,78.00
             303.16,78.36 334.99,96.25 350.71,122.00
             358.32,134.46 359.94,139.12 363.71,153.00
             364.45,155.73 366.29,164.08 364.74,166.44
             362.97,169.14 354.96,169.05 352.00,168.99
             342.55,168.77 328.81,165.00 321.28,159.25
             305.76,147.40 293.52,128.25 272.00,128.00
             264.82,127.92 257.55,128.92 251.00,132.05
             244.45,135.19 242.18,139.50 235.00,140.00
             235.59,144.22 233.30,148.94 229.00,150.00
             229.00,150.00 225.01,166.00 225.01,166.00
             223.69,171.64 224.33,177.36 225.01,183.00
             226.03,188.29 228.80,193.55 231.66,198.00
             244.09,217.32 269.35,225.84 290.00,214.48
             305.13,206.16 313.73,190.84 329.00,183.83
             344.59,176.67 350.37,180.30 365.00,179.00
             366.43,191.85 358.85,213.07 352.00,223.83
             347.38,231.08 341.79,237.71 335.57,243.61
             329.88,249.01 322.05,256.42 314.00,257.00
             312.97,260.75 305.59,263.06 302.00,264.25
             286.28,269.47 278.98,269.08 263.00,269.00
             240.25,268.89 215.71,255.43 200.44,239.16
             194.69,233.04 187.25,225.81 187.00,217.00 Z
           M 346.00,136.00
           C 341.98,132.48 340.92,129.52 337.74,125.40
             332.78,118.96 327.26,112.93 320.83,107.91
             310.01,99.46 289.82,91.02 276.00,91.00
             264.59,90.98 261.44,90.63 250.00,93.47
             236.90,96.74 229.32,102.27 225.00,103.00
             217.11,112.15 209.76,113.30 198.76,131.04
             195.49,136.30 192.28,144.99 190.58,151.00
             182.93,178.01 188.75,206.57 207.21,228.00
             211.10,232.52 220.80,240.68 226.00,243.77
             230.27,246.31 238.95,250.14 242.00,253.00
             247.33,252.52 256.05,255.35 262.00,256.04
             265.05,256.70 277.55,256.18 281.00,256.04
             286.15,255.32 291.12,253.80 296.00,252.17
             315.32,245.69 328.09,236.00 339.49,219.00
             344.83,211.03 349.88,201.78 350.00,192.00
             337.68,192.57 330.08,196.77 321.17,205.13
             316.69,209.33 308.75,219.05 303.00,220.00
             300.39,224.52 296.55,225.83 292.00,228.02
             281.26,233.19 266.42,234.14 255.00,230.62
             249.55,228.94 242.63,224.45 238.00,224.00
             234.68,218.45 228.34,216.36 221.05,205.74
             211.11,191.26 208.90,174.65 213.71,158.00
             215.52,151.72 217.81,145.19 223.00,141.00
             224.06,135.12 234.12,127.33 239.00,124.13
             257.29,111.83 282.75,112.09 300.91,124.13
             300.91,124.13 324.09,144.96 324.09,144.96
             331.29,150.84 341.49,157.52 351.00,154.00
             349.43,147.85 348.32,143.00 344.00,138.00
             344.00,138.00 346.00,136.00 346.00,136.00 Z
           M 217.00,105.00
           C 217.00,105.00 216.00,105.00 216.00,105.00
             216.00,105.00 217.00,106.00 217.00,106.00
             217.00,106.00 217.00,105.00 217.00,105.00 Z
           M 321.00,105.00
           C 321.00,105.00 320.00,105.00 320.00,105.00
             320.00,105.00 321.00,106.00 321.00,106.00
             321.00,106.00 321.00,105.00 321.00,105.00 Z
           M 327.00,110.00
           C 327.00,110.00 326.00,110.00 326.00,110.00
             326.00,110.00 327.00,111.00 327.00,111.00
             327.00,111.00 327.00,110.00 327.00,110.00 Z
           M 199.00,118.00
           C 199.00,118.00 198.00,118.00 198.00,118.00
             198.00,118.00 199.00,119.00 199.00,119.00
             199.00,119.00 199.00,118.00 199.00,118.00 Z
           M 203.00,123.00
           C 203.00,123.00 202.00,123.00 202.00,123.00
             202.00,123.00 203.00,124.00 203.00,124.00
             203.00,124.00 203.00,123.00 203.00,123.00 Z
           M 202.00,124.00
           C 202.00,124.00 201.00,124.00 201.00,124.00
             201.00,124.00 202.00,125.00 202.00,125.00
             202.00,125.00 202.00,124.00 202.00,124.00 Z
           M 309.00,131.00
           C 309.00,131.00 308.00,131.00 308.00,131.00
             308.00,131.00 309.00,132.00 309.00,132.00
             309.00,132.00 309.00,131.00 309.00,131.00 Z
           M 235.00,139.00
           C 235.00,139.00 234.00,139.00 234.00,139.00
             234.00,139.00 235.00,140.00 235.00,140.00
             235.00,140.00 235.00,139.00 235.00,139.00 Z
           M 234.00,143.00
           C 234.00,143.00 233.00,143.00 233.00,143.00
             233.00,143.00 234.00,144.00 234.00,144.00
             234.00,144.00 234.00,143.00 234.00,143.00 Z
           M 360.00,143.00
           C 360.00,143.00 359.00,143.00 359.00,143.00
             359.00,143.00 360.00,144.00 360.00,144.00
             360.00,144.00 360.00,143.00 360.00,143.00 Z
           M 309.00,145.00
           C 309.00,145.00 308.00,145.00 308.00,145.00
             308.00,145.00 309.00,146.00 309.00,146.00
             309.00,146.00 309.00,145.00 309.00,145.00 Z
           M 263.00,149.63
           C 266.22,148.99 267.73,148.93 271.00,149.01
             296.66,149.64 305.67,186.01 279.00,196.98
             274.97,198.64 272.37,199.18 268.00,198.96
             255.95,198.33 245.64,186.80 245.04,175.00
             244.44,162.94 252.04,153.68 263.00,149.63 Z
           M 321.00,190.00
           C 321.00,190.00 320.00,190.00 320.00,190.00
             320.00,190.00 321.00,191.00 321.00,191.00
             321.00,191.00 321.00,190.00 321.00,190.00 Z
           M 327.00,236.00
           C 327.00,236.00 326.00,236.00 326.00,236.00
             326.00,236.00 327.00,237.00 327.00,237.00
             327.00,237.00 327.00,236.00 327.00,236.00 Z
           M 304.00,252.00
           C 304.00,252.00 303.00,252.00 303.00,252.00
             303.00,252.00 304.00,253.00 304.00,253.00
             304.00,253.00 304.00,252.00 304.00,252.00 Z
           M 322.00,253.00
           C 322.00,253.00 321.00,253.00 321.00,253.00
             321.00,253.00 322.00,254.00 322.00,254.00
             322.00,254.00 322.00,253.00 322.00,253.00 Z" />
</svg>
